<?xml version="1.0" encoding="UTF-8" standalone="no" ?>
<!DOCTYPE svg PUBLIC "-//W3C//DTD SVG 1.1//EN" "http://www.w3.org/Graphics/SVG/1.1/DTD/svg11.dtd">
<svg xmlns="http://www.w3.org/2000/svg" xmlns:xlink="http://www.w3.org/1999/xlink" version="1.1" width="369.49335937499995" height="331.55999999999995" xml:space="preserve">
<desc>Created with Fabric.js 1.6.0-rc.1</desc>
<defs></defs>
  <g transform="translate(196.18 106.44) scale(3.18 3.61)">
   <text font-family="Very Damaged UL" font-size="40" font-weight="normal" style="stroke: none; stroke-width: 1; stroke-dasharray: none; stroke-linecap: butt; stroke-linejoin: miter; stroke-miterlimit: 10; fill: #26789e; fill-rule: nonzero; opacity: 1;" ><tspan x="-8.79" y="8.98" style="stroke: none; stroke-width: 0; stroke-dasharray: none; stroke-linecap: butt; stroke-linejoin: miter; stroke-miterlimit: 4; fill: #26789e; fill-rule: ; opacity: 1;">J</tspan></text>
 </g>
  <g transform="translate(238.96 123.54) scale(1.63 1.63)">
   <text font-family="Very Damaged UL" font-size="40" font-weight="normal" style="stroke: none; stroke-width: 1; stroke-dasharray: none; stroke-linecap: butt; stroke-linejoin: miter; stroke-miterlimit: 10; fill: #000000; fill-rule: nonzero; opacity: 1;" ><tspan x="-10.74" y="8.98" style="stroke: none; stroke-width: 0; stroke-dasharray: none; stroke-linecap: butt; stroke-linejoin: miter; stroke-miterlimit: 4; fill: #000000; fill-rule: ; opacity: 1;">S</tspan></text>
 </g>
  <g transform="translate(240.05 148.94) scale(0.55 0.55)">
   <text font-family="Interlude" font-size="40" font-weight="bold" style="stroke: none; stroke-width: 1; stroke-dasharray: none; stroke-linecap: butt; stroke-linejoin: miter; stroke-miterlimit: 10; fill: #ebebeb; fill-rule: nonzero; opacity: 1;" ><tspan x="-217.68" y="8.98" style="stroke: none; stroke-width: 0; stroke-dasharray: none; stroke-linecap: butt; stroke-linejoin: miter; stroke-miterlimit: 4; fill: #ebebeb; fill-rule: ; opacity: 1;">T</tspan><tspan x="-197.4" y="8.98" style="stroke: none; stroke-width: 0; stroke-dasharray: none; stroke-linecap: butt; stroke-linejoin: miter; stroke-miterlimit: 4; fill: #ebebeb; fill-rule: ; opacity: 1;">u</tspan><tspan x="-173.98" y="8.98" style="stroke: none; stroke-width: 0; stroke-dasharray: none; stroke-linecap: butt; stroke-linejoin: miter; stroke-miterlimit: 4; fill: #ebebeb; fill-rule: ; opacity: 1;">r</tspan><tspan x="-156.25" y="8.98" style="stroke: none; stroke-width: 0; stroke-dasharray: none; stroke-linecap: butt; stroke-linejoin: miter; stroke-miterlimit: 4; fill: #ebebeb; fill-rule: ; opacity: 1;">n</tspan><tspan x="-133.65" y="8.98" style="stroke: none; stroke-width: 0; stroke-dasharray: none; stroke-linecap: butt; stroke-linejoin: miter; stroke-miterlimit: 4; fill: #ebebeb; fill-rule: ; opacity: 1;">i</tspan><tspan x="-127.27" y="8.98" style="stroke: none; stroke-width: 0; stroke-dasharray: none; stroke-linecap: butt; stroke-linejoin: miter; stroke-miterlimit: 4; fill: #ebebeb; fill-rule: ; opacity: 1;">n</tspan><tspan x="-104.67" y="8.98" style="stroke: none; stroke-width: 0; stroke-dasharray: none; stroke-linecap: butt; stroke-linejoin: miter; stroke-miterlimit: 4; fill: #ebebeb; fill-rule: ; opacity: 1;">g</tspan><tspan x="-81.25" y="8.98" style="stroke: none; stroke-width: 0; stroke-dasharray: none; stroke-linecap: butt; stroke-linejoin: miter; stroke-miterlimit: 4; fill: #ebebeb; fill-rule: ; opacity: 1;"> </tspan><tspan x="-71.33" y="8.98" style="stroke: none; stroke-width: 0; stroke-dasharray: none; stroke-linecap: butt; stroke-linejoin: miter; stroke-miterlimit: 4; fill: #ebebeb; fill-rule: ; opacity: 1;">i</tspan><tspan x="-64.94" y="8.98" style="stroke: none; stroke-width: 0; stroke-dasharray: none; stroke-linecap: butt; stroke-linejoin: miter; stroke-miterlimit: 4; fill: #ebebeb; fill-rule: ; opacity: 1;">d</tspan><tspan x="-40.9" y="8.98" style="stroke: none; stroke-width: 0; stroke-dasharray: none; stroke-linecap: butt; stroke-linejoin: miter; stroke-miterlimit: 4; fill: #ebebeb; fill-rule: ; opacity: 1;">e</tspan><tspan x="-18.63" y="8.98" style="stroke: none; stroke-width: 0; stroke-dasharray: none; stroke-linecap: butt; stroke-linejoin: miter; stroke-miterlimit: 4; fill: #ebebeb; fill-rule: ; opacity: 1;">a</tspan><tspan x="5.1" y="8.98" style="stroke: none; stroke-width: 0; stroke-dasharray: none; stroke-linecap: butt; stroke-linejoin: miter; stroke-miterlimit: 4; fill: #ebebeb; fill-rule: ; opacity: 1;">s</tspan><tspan x="25.1" y="8.98" style="stroke: none; stroke-width: 0; stroke-dasharray: none; stroke-linecap: butt; stroke-linejoin: miter; stroke-miterlimit: 4; fill: #ebebeb; fill-rule: ; opacity: 1;"> </tspan><tspan x="35.02" y="8.98" style="stroke: none; stroke-width: 0; stroke-dasharray: none; stroke-linecap: butt; stroke-linejoin: miter; stroke-miterlimit: 4; fill: #ebebeb; fill-rule: ; opacity: 1;">i</tspan><tspan x="41.41" y="8.98" style="stroke: none; stroke-width: 0; stroke-dasharray: none; stroke-linecap: butt; stroke-linejoin: miter; stroke-miterlimit: 4; fill: #ebebeb; fill-rule: ; opacity: 1;">n</tspan><tspan x="64" y="8.98" style="stroke: none; stroke-width: 0; stroke-dasharray: none; stroke-linecap: butt; stroke-linejoin: miter; stroke-miterlimit: 4; fill: #ebebeb; fill-rule: ; opacity: 1;">t</tspan><tspan x="75.92" y="8.98" style="stroke: none; stroke-width: 0; stroke-dasharray: none; stroke-linecap: butt; stroke-linejoin: miter; stroke-miterlimit: 4; fill: #ebebeb; fill-rule: ; opacity: 1;">o</tspan><tspan x="98.36" y="8.98" style="stroke: none; stroke-width: 0; stroke-dasharray: none; stroke-linecap: butt; stroke-linejoin: miter; stroke-miterlimit: 4; fill: #ebebeb; fill-rule: ; opacity: 1;"> </tspan><tspan x="108.28" y="8.98" style="stroke: none; stroke-width: 0; stroke-dasharray: none; stroke-linecap: butt; stroke-linejoin: miter; stroke-miterlimit: 4; fill: #ebebeb; fill-rule: ; opacity: 1;">r</tspan><tspan x="126.02" y="8.98" style="stroke: none; stroke-width: 0; stroke-dasharray: none; stroke-linecap: butt; stroke-linejoin: miter; stroke-miterlimit: 4; fill: #ebebeb; fill-rule: ; opacity: 1;">e</tspan><tspan x="148.28" y="8.98" style="stroke: none; stroke-width: 0; stroke-dasharray: none; stroke-linecap: butt; stroke-linejoin: miter; stroke-miterlimit: 4; fill: #ebebeb; fill-rule: ; opacity: 1;">a</tspan><tspan x="172.01" y="8.98" style="stroke: none; stroke-width: 0; stroke-dasharray: none; stroke-linecap: butt; stroke-linejoin: miter; stroke-miterlimit: 4; fill: #ebebeb; fill-rule: ; opacity: 1;">l</tspan><tspan x="178.71" y="8.98" style="stroke: none; stroke-width: 0; stroke-dasharray: none; stroke-linecap: butt; stroke-linejoin: miter; stroke-miterlimit: 4; fill: #ebebeb; fill-rule: ; opacity: 1;">i</tspan><tspan x="185.1" y="8.98" style="stroke: none; stroke-width: 0; stroke-dasharray: none; stroke-linecap: butt; stroke-linejoin: miter; stroke-miterlimit: 4; fill: #ebebeb; fill-rule: ; opacity: 1;">t</tspan><tspan x="197.01" y="8.98" style="stroke: none; stroke-width: 0; stroke-dasharray: none; stroke-linecap: butt; stroke-linejoin: miter; stroke-miterlimit: 4; fill: #ebebeb; fill-rule: ; opacity: 1;">y</tspan></text>
 </g>
  <g transform="translate(282.15 124.62) scale(2.18 1.6)">
   <text font-family="Very Damaged UL" font-size="40" font-weight="normal" style="stroke: none; stroke-width: 1; stroke-dasharray: none; stroke-linecap: butt; stroke-linejoin: miter; stroke-miterlimit: 10; fill: #509166; fill-rule: nonzero; opacity: 1;" ><tspan x="-10.74" y="8.98" style="stroke: none; stroke-width: 0; stroke-dasharray: none; stroke-linecap: butt; stroke-linejoin: miter; stroke-miterlimit: 4; fill: #509166; fill-rule: ; opacity: 1;">K</tspan></text>
 </g>
<g style="stroke: none; stroke-width: 1; stroke-dasharray: none; stroke-linecap: butt; stroke-linejoin: miter; stroke-miterlimit: 10; fill: none; fill-rule: nonzero; opacity: 1;" transform="translate(10 15.899999999999977) rotate(331.82) scale(5.27 5.27)" >
  <path d="M 42.111 8.847 c -0.473 -0.29 -1.087 -0.143 -1.376 0.327 c -0.29 0.471 -0.143 1.086 0.327 1.376 C 48.224 14.96 52.5 22.604 52.5 31 c 0 2.067 -0.271 4.137 -0.805 6.152 c -0.141 0.533 0.177 1.081 0.711 1.223 c 0.085 0.022 0.172 0.033 0.256 0.033 c 0.443 0 0.848 -0.296 0.966 -0.744 C 54.207 35.482 54.5 33.24 54.5 31 C 54.5 21.905 49.869 13.623 42.111 8.847 z" style="stroke: none; stroke-width: 1; stroke-dasharray: none; stroke-linecap: butt; stroke-linejoin: miter; stroke-miterlimit: 10; fill: #424A60; fill-rule: nonzero; opacity: 1;" transform=" matrix(1 0 0 1 0 0) " stroke-linecap="round" />
  <path d="M 37.671 53.182 C 34.756 54.388 31.671 55 28.5 55 c -6.728 0 -13.189 -2.854 -17.728 -7.832 c -0.372 -0.408 -1.003 -0.437 -1.413 -0.065 c -0.408 0.372 -0.437 1.005 -0.065 1.413 C 14.211 53.907 21.211 57 28.5 57 c 3.435 0 6.778 -0.663 9.936 -1.971 c 0.51 -0.211 0.753 -0.796 0.542 -1.307 C 38.767 53.213 38.181 52.971 37.671 53.182 z" style="stroke: none; stroke-width: 1; stroke-dasharray: none; stroke-linecap: butt; stroke-linejoin: miter; stroke-miterlimit: 10; fill: #424A60; fill-rule: nonzero; opacity: 1;" transform=" matrix(1 0 0 1 0 0) " stroke-linecap="round" />
  <path d="M 22.784 7.687 c 0.537 -0.132 0.865 -0.673 0.734 -1.209 c -0.13 -0.536 -0.674 -0.862 -1.208 -0.734 C 11.302 8.434 3.371 17.838 2.573 29.146 c -0.039 0.551 0.376 1.029 0.927 1.067 c 0.024 0.002 0.048 0.003 0.071 0.003 c 0.521 0 0.959 -0.402 0.997 -0.93 C 5.305 18.85 12.625 10.169 22.784 7.687 z" style="stroke: none; stroke-width: 1; stroke-dasharray: none; stroke-linecap: butt; stroke-linejoin: miter; stroke-miterlimit: 10; fill: #424A60; fill-rule: nonzero; opacity: 1;" transform=" matrix(1 0 0 1 0 0) " stroke-linecap="round" />
  <circle cx="28.5" cy="6" r="6" style="stroke: none; stroke-width: 1; stroke-dasharray: none; stroke-linecap: butt; stroke-linejoin: miter; stroke-miterlimit: 10; fill: #21211f; fill-rule: nonzero; opacity: 1;" transform="  matrix(1 0 0 1 0 0) "/>
  <circle cx="6.5" cy="43" r="6" style="stroke: none; stroke-width: 1; stroke-dasharray: none; stroke-linecap: butt; stroke-linejoin: miter; stroke-miterlimit: 10; fill: #7383BF; fill-rule: nonzero; opacity: 1;" transform="  matrix(1 0 0 1 0 0) "/>
  <circle cx="50.5" cy="43" r="6" style="stroke: none; stroke-width: 1; stroke-dasharray: none; stroke-linecap: butt; stroke-linejoin: miter; stroke-miterlimit: 10; fill: #43B05C; fill-rule: nonzero; opacity: 1;" transform="  matrix(1 0 0 1 0 0) "/>
</g>
</svg>